<svg xmlns="http://www.w3.org/2000/svg" width="1100" height="620" viewBox="0 0 1100 620" role="img" aria-labelledby="title desc">
  <title id="title">配当課税ルールとchi</title>
  <desc id="desc">横軸を配当課税比率 tau_D/lambda、縦軸をchiとして、tau_D/lambdaが1のときchiが1になる関係を示す図。</desc>
  <defs>
    <marker id="arrow" viewBox="0 0 10 10" refX="9" refY="5" markerWidth="8" markerHeight="8" orient="auto">
      <path d="M0 0 L10 5 L0 10 Z" fill="#34495e"/>
    </marker>
    <style>
      .title { font: 700 28px -apple-system, BlinkMacSystemFont, "Hiragino Sans", "Noto Sans JP", sans-serif; fill: #1f2937; }
      .subtitle { font: 400 16px -apple-system, BlinkMacSystemFont, "Hiragino Sans", "Noto Sans JP", sans-serif; fill: #566273; }
      .axis { stroke: #34495e; stroke-width: 2.4; marker-end: url(#arrow); }
      .grid { stroke: #d8dee8; stroke-width: 1; }
      .zero { stroke: #697386; stroke-width: 2; stroke-dasharray: 8 6; }
      .curve { stroke: #d9792f; stroke-width: 4; fill: none; }
      .label { font: 700 18px -apple-system, BlinkMacSystemFont, "Hiragino Sans", "Noto Sans JP", sans-serif; fill: #20242a; }
      .text { font: 400 15px -apple-system, BlinkMacSystemFont, "Hiragino Sans", "Noto Sans JP", sans-serif; fill: #34495e; }
      .math { font: 600 18px "Times New Roman", serif; fill: #20242a; }
      .note { font: 400 14px -apple-system, BlinkMacSystemFont, "Hiragino Sans", "Noto Sans JP", sans-serif; fill: #566273; }
      .box { fill: #ffffff; stroke: #c9d3df; stroke-width: 1.6; rx: 8; }
      .green { fill: #eef8ef; stroke: #379b55; stroke-width: 1.6; rx: 8; }
      .purple { fill: #f6edf9; stroke: #8d5ab8; stroke-width: 1.6; rx: 8; }
    </style>
  </defs>

  <rect x="0" y="0" width="1100" height="620" fill="#ffffff"/>
  <rect x="44" y="34" width="1012" height="540" rx="18" fill="#f8fafc" stroke="#d9e0ea"/>
  <text class="title" x="74" y="82">配当課税ルールと Type H の所得弾力性</text>
  <text class="subtitle" x="76" y="112">τ_D/λ が小さいほど、景気変動時の Type H 所得は集計所得より大きく動く</text>

  <line class="grid" x1="150" y1="430" x2="930" y2="430"/>
  <line class="grid" x1="150" y1="350" x2="930" y2="350"/>
  <line class="grid" x1="150" y1="270" x2="930" y2="270"/>
  <line class="axis" x1="150" y1="510" x2="960" y2="510"/>
  <line class="axis" x1="150" y1="510" x2="150" y2="150"/>
  <line class="zero" x1="150" y1="350" x2="930" y2="350"/>
  <line class="zero" x1="540" y1="510" x2="540" y2="150"/>

  <path class="curve" d="M150 190 L930 510"/>
  <circle cx="540" cy="350" r="7" fill="#d9792f"/>

  <text class="label" x="490" y="558">τ_D/λ</text>
  <text class="label" x="102" y="146">χ</text>
  <text class="note" x="532" y="536">1</text>
  <text class="note" x="116" y="356">1</text>
  <text class="math" x="660" y="238">χ = 1 + ϕ(1 - τ_D/λ)</text>

  <rect class="green" x="210" y="404" width="255" height="78"/>
  <text class="text" x="232" y="435">τ_D &lt; λ</text>
  <text class="math" x="232" y="462">χ &gt; 1：増幅</text>

  <rect class="purple" x="612" y="404" width="255" height="78"/>
  <text class="text" x="634" y="435">τ_D &gt; λ</text>
  <text class="math" x="634" y="462">χ &lt; 1：抑制</text>
</svg>
