<svg xmlns="http://www.w3.org/2000/svg" width="1100" height="620" viewBox="0 0 1100 620" role="img" aria-labelledby="title desc">
  <title id="title">RANKのNew Keynesian Cross</title>
  <desc id="desc">横軸に所得、縦軸に計画消費をとり、45度線とほぼ水平なRANKのPE曲線を示す図。</desc>
  <defs>
    <marker id="arrow" viewBox="0 0 10 10" refX="9" refY="5" markerWidth="8" markerHeight="8" orient="auto">
      <path d="M0 0 L10 5 L0 10 Z" fill="#34495e"/>
    </marker>
    <style>
      .title { font: 700 28px -apple-system, BlinkMacSystemFont, "Hiragino Sans", "Noto Sans JP", sans-serif; fill: #1f2937; }
      .subtitle { font: 400 16px -apple-system, BlinkMacSystemFont, "Hiragino Sans", "Noto Sans JP", sans-serif; fill: #566273; }
      .axis { stroke: #34495e; stroke-width: 2.4; marker-end: url(#arrow); }
      .grid { stroke: #d8dee8; stroke-width: 1; }
      .line45 { stroke: #697386; stroke-width: 3; fill: none; }
      .pe { stroke: #2f6fbe; stroke-width: 4; fill: none; }
      .pe2 { stroke: #2f6fbe; stroke-width: 4; fill: none; stroke-dasharray: 10 7; }
      .shift { stroke: #d9792f; stroke-width: 3; fill: none; marker-end: url(#arrow); }
      .label { font: 700 18px -apple-system, BlinkMacSystemFont, "Hiragino Sans", "Noto Sans JP", sans-serif; fill: #20242a; }
      .text { font: 400 15px -apple-system, BlinkMacSystemFont, "Hiragino Sans", "Noto Sans JP", sans-serif; fill: #34495e; }
      .math { font: 600 18px "Times New Roman", serif; fill: #20242a; }
      .note { font: 400 14px -apple-system, BlinkMacSystemFont, "Hiragino Sans", "Noto Sans JP", sans-serif; fill: #566273; }
      .box { fill: #ffffff; stroke: #c9d3df; stroke-width: 1.6; rx: 8; }
    </style>
  </defs>

  <rect x="0" y="0" width="1100" height="620" fill="#ffffff"/>
  <rect x="44" y="34" width="1012" height="540" rx="18" fill="#f8fafc" stroke="#d9e0ea"/>
  <text class="title" x="74" y="82">RANK の New Keynesian Cross</text>
  <text class="subtitle" x="76" y="112">β が 1 に近いと PE 曲線はほぼ水平で、直接的な異時点間代替が中心になる</text>

  <line class="grid" x1="150" y1="430" x2="930" y2="430"/>
  <line class="grid" x1="150" y1="350" x2="930" y2="350"/>
  <line class="grid" x1="150" y1="270" x2="930" y2="270"/>
  <line class="axis" x1="150" y1="510" x2="960" y2="510"/>
  <line class="axis" x1="150" y1="510" x2="150" y2="150"/>

  <path class="line45" d="M150 510 L870 150"/>
  <path class="pe" d="M150 405 L870 333"/>
  <path class="pe2" d="M150 350 L870 278"/>
  <path class="shift" d="M520 368 L520 313"/>

  <circle cx="380" cy="382" r="6" fill="#2f6fbe"/>
  <circle cx="505" cy="315" r="6" fill="#2f6fbe"/>

  <text class="label" x="500" y="558">所得 y</text>
  <text class="label" x="78" y="146">計画消費 c</text>
  <text class="text" x="790" y="186">45度線</text>
  <text class="math" x="780" y="318">PE(r)</text>
  <text class="math" x="780" y="260">PE(r低下)</text>
  <text class="note" x="535" y="344">直接シフト</text>

  <rect class="box" x="204" y="162" width="330" height="86"/>
  <text class="math" x="226" y="198">ωᴿ = (1-β)/(1-βp)</text>
  <text class="text" x="226" y="226">一時的ショックでは ωᴿ ≃ 0</text>
</svg>
